<?xml version="1.0" encoding="utf-8"?>
<!-- Generator: Adobe Illustrator 19.2.1, SVG Export Plug-In . SVG Version: 6.00 Build 0)  -->
<svg version="1.1" id="Capa_5" xmlns="http://www.w3.org/2000/svg" xmlns:xlink="http://www.w3.org/1999/xlink" x="0px" y="0px"
	 viewBox="0 0 245.6 196.9" style="enable-background:new 0 0 245.6 196.9;" xml:space="preserve">
<style type="text/css">
	.st0{fill-rule:evenodd;clip-rule:evenodd;fill:#762B82;}
	.st1{fill:#762B82;}
	.st2{fill:#F7E02C;}
	.st3{fill:#5D5D5D;}
	.st4{clip-path:url(#SVGID_2_);}
	.st5{opacity:0.3;}
	.st6{fill-rule:evenodd;clip-rule:evenodd;fill:#F7E02C;}
	.st7{fill:#FFFFFF;}
	.st8{fill:#9A999E;}
	.st9{fill:none;stroke:#F7E02C;stroke-width:4;stroke-miterlimit:10;}
	.st10{fill:#762D83;}
</style>
<g>
	<path class="st6" d="M54.5,21.1c0,11.9,9.9,21.8,21.8,21.8c11.9,0,21.8-9.9,21.8-21.8S88.2,0,76.3,0C64.4,0,54.5,9.2,54.5,21.1
		L54.5,21.1z"/>
	<path class="st6" d="M166.2,0c-11.9,0-21.8,9.2-21.8,21.1s9.9,21.8,21.8,21.8c11.9,0,21.8-9.9,21.8-21.8S178.1,0,166.2,0L166.2,0z"
		/>
	<g>
		<path class="st2" d="M28.7,82.9C13,82.9,0.1,84.5,0,86.5c0,0,0,0,0,1.8c0,60,55,108.6,122.8,108.6s122.8-48.6,122.8-108.6
			c0-1.8,0-1.8,0-1.8c-0.1-2-13-3.6-28.7-3.6H28.7z"/>
	</g>
</g>
</svg>
