<?xml version="1.0" encoding="utf-8"?>
<!-- Generator: Adobe Illustrator 19.2.1, SVG Export Plug-In . SVG Version: 6.00 Build 0)  -->
<svg version="1.1" id="Capa_5" xmlns="http://www.w3.org/2000/svg" xmlns:xlink="http://www.w3.org/1999/xlink" x="0px" y="0px"
	 viewBox="0 0 11.9 11.9" style="enable-background:new 0 0 11.9 11.9;" xml:space="preserve">
<style type="text/css">
	.st0{fill-rule:evenodd;clip-rule:evenodd;fill:#762B82;}
	.st1{fill:#762B82;}
	.st2{fill:#F7E02C;}
	.st3{fill:#5D5D5D;}
	.st4{clip-path:url(#SVGID_2_);}
	.st5{opacity:0.3;}
	.st6{fill-rule:evenodd;clip-rule:evenodd;fill:#F7E02C;}
	.st7{fill:#FFFFFF;}
	.st8{fill:#9A999E;}
	.st9{fill:none;stroke:#F7E02C;stroke-width:4;stroke-miterlimit:10;}
	.st10{fill:#762D83;}
</style>
<g>
	<path class="st8" d="M9.9,0H2C0.9,0,0,0.9,0,2v7.9c0,1.1,0.9,2,2,2h7.9c1.1,0,2-0.9,2-2V2C11.9,0.9,11,0,9.9,0z M10.2,7.6
		c0,0.7-0.6,1.3-1.3,1.3H3c-0.7,0-1.3-0.6-1.3-1.3V4.2C1.7,3.5,2.3,3,3,3h5.9c0.7,0,1.3,0.6,1.3,1.3V7.6z"/>
	<polygon class="st8" points="5.1,7.4 7.5,5.8 5.1,4.2 	"/>
</g>
</svg>
