<?xml version="1.0" encoding="utf-8"?>
<!-- Generator: Adobe Illustrator 19.2.1, SVG Export Plug-In . SVG Version: 6.00 Build 0)  -->
<svg version="1.1" id="Capa_5" xmlns="http://www.w3.org/2000/svg" xmlns:xlink="http://www.w3.org/1999/xlink" x="0px" y="0px"
	 viewBox="0 0 29.5 29.5" style="enable-background:new 0 0 29.5 29.5;" xml:space="preserve">
<style type="text/css">
	.st0{fill-rule:evenodd;clip-rule:evenodd;fill:#762B82;}
	.st1{fill:#762B82;}
	.st2{fill:#F7E02C;}
	.st3{fill:#5D5D5D;}
	.st4{clip-path:url(#SVGID_2_);}
	.st5{opacity:0.3;}
	.st6{fill-rule:evenodd;clip-rule:evenodd;fill:#F7E02C;}
	.st7{fill:#FFFFFF;}
	.st8{fill:#9A999E;}
	.st9{fill:none;stroke:#F7E02C;stroke-width:4;stroke-miterlimit:10;}
	.st10{fill:#762D83;}
</style>
<path class="st0" d="M14.8,2.5C11.3,2.5,8.3,3.8,6,6c-2.2,2.3-3.6,5.3-3.6,8.7c0,3.4,1.3,6.5,3.6,8.7c2.2,2.2,5.3,3.6,8.7,3.6
	c3.4,0,6.5-1.3,8.7-3.6c2.2-2.2,3.6-5.3,3.6-8.7c0-3.4-1.3-6.5-3.6-8.7C21.3,3.8,18.2,2.5,14.8,2.5 M20.7,19.8L20.7,19.8H8.8
	c-0.3,0-0.6-0.1-0.8-0.3c-0.2-0.2-0.3-0.5-0.3-0.9c0-0.3,0.1-0.6,0.3-0.8c0.2-0.2,0.5-0.3,0.8-0.3h11.8c0.3,0,0.6,0.1,0.8,0.3
	c0.3,0.2,0.4,0.5,0.4,0.8c0,0.4-0.2,0.7-0.4,0.9C21.3,19.7,21,19.8,20.7,19.8 M20.7,12.1L20.7,12.1H8.8c-0.3,0-0.6-0.1-0.8-0.4
	c-0.2-0.2-0.3-0.5-0.3-0.8c0-0.3,0.1-0.7,0.3-0.9c0.2-0.2,0.5-0.4,0.8-0.4h11.8c0.3,0,0.6,0.1,0.8,0.4c0.3,0.2,0.4,0.5,0.4,0.9
	c0,0.3-0.2,0.6-0.4,0.8C21.3,12,21,12.1,20.7,12.1 M20.7,16L20.7,16H8.8c-0.3,0-0.6-0.1-0.8-0.3c-0.2-0.3-0.3-0.5-0.3-0.9
	c0-0.3,0.1-0.7,0.3-0.9c0.2-0.2,0.5-0.3,0.8-0.3h11.8c0.3,0,0.6,0.1,0.8,0.3c0.3,0.2,0.4,0.5,0.4,0.9c0,0.4-0.2,0.6-0.4,0.8
	C21.3,15.9,21,16,20.7,16 M14.8,29.5L14.8,29.5c-4.1,0-7.8-1.6-10.4-4.3C1.6,22.5,0,18.9,0,14.8C0,10.7,1.6,7,4.3,4.3
	C7,1.7,10.7,0,14.8,0c4.1,0,7.8,1.7,10.4,4.3c2.7,2.7,4.3,6.4,4.3,10.4c0,4.1-1.6,7.8-4.3,10.4C22.5,27.9,18.8,29.5,14.8,29.5"/>
</svg>
