<?xml version="1.0" encoding="utf-8"?>
<!-- Generator: Adobe Illustrator 19.2.1, SVG Export Plug-In . SVG Version: 6.00 Build 0)  -->
<svg version="1.1" id="Capa_5" xmlns="http://www.w3.org/2000/svg" xmlns:xlink="http://www.w3.org/1999/xlink" x="0px" y="0px"
	 viewBox="0 0 121.5 111.1" style="enable-background:new 0 0 121.5 111.1;" xml:space="preserve">
<style type="text/css">
	.st0{fill-rule:evenodd;clip-rule:evenodd;fill:#762B82;}
	.st1{fill:#762B82;}
	.st2{fill:#F7E02C;}
	.st3{fill:#5D5D5D;}
	.st4{clip-path:url(#SVGID_2_);}
	.st5{opacity:0.3;}
	.st6{fill-rule:evenodd;clip-rule:evenodd;fill:#F7E02C;}
	.st7{fill:#FFFFFF;}
	.st8{fill:#9A999E;}
	.st9{fill:none;stroke:#F7E02C;stroke-width:4;stroke-miterlimit:10;}
	.st10{fill:#762D83;}
</style>
<g>
	<path class="st2" d="M44.3,65.8c1,3.1,3.9,5.2,7.1,5.2h52.8c3.4,0,6.3-2.3,7.2-5.5l9.7-35.1c0.6-2.3,0.2-4.7-1.3-6.6
		c-1.4-1.9-3.6-3-6-3H36L29,11c-3.7-5.2-9.7-8.2-16-8.2H5.6C2.5,2.8,0,5.2,0,8.3c0,3.1,2.5,5.5,5.6,5.5h6.2c3.5,0,6.8,1.7,8.8,4.6
		l9.9,14v43.7c0,7.1,5.8,12.9,12.9,12.9h59.5c3.1,0,5.6-2.5,5.6-5.5c0-3.1-2.5-5.5-5.6-5.5h-58c-1.7,0-3.1-1.4-3.1-3.1V57.9
		L44.3,65.8z"/>
	<path class="st2" d="M50.8,102.8c0,4.6-3.8,8.4-8.4,8.4c-4.6,0-8.4-3.7-8.4-8.4c0-4.6,3.7-8.4,8.4-8.4
		C47,94.4,50.8,98.1,50.8,102.8"/>
	<path class="st2" d="M104.9,102.8c0,4.6-3.7,8.4-8.4,8.4c-4.6,0-8.4-3.7-8.4-8.4c0-4.6,3.7-8.4,8.4-8.4
		C101.2,94.4,104.9,98.1,104.9,102.8"/>
</g>
<path class="st1" d="M88.9,41h-8.6v-8.6c0-2.7-2.2-4.9-4.9-4.9c-2.7,0-4.9,2.2-4.9,4.9V41h-8.6c-2.7,0-4.9,2.2-4.9,4.9
	c0,2.7,2.2,4.9,4.9,4.9h8.6v8.6c0,2.7,2.2,4.9,4.9,4.9c2.7,0,4.9-2.2,4.9-4.9v-8.6l8.6,0c2.7,0,4.9-2.2,4.9-4.9
	C93.7,43.2,91.6,41,88.9,41"/>
<path class="st2" d="M104.8,6.9h-3.9V2.9c0-1.2-1-2.2-2.2-2.2s-2.2,1-2.2,2.2v3.9h-3.9c-1.2,0-2.2,1-2.2,2.2c0,1.2,1,2.2,2.2,2.2
	h3.9v3.9c0,1.2,1,2.2,2.2,2.2s2.2-1,2.2-2.2v-3.9l3.9,0c1.2,0,2.2-1,2.2-2.2C107,7.9,106,6.9,104.8,6.9"/>
</svg>
