<?xml version="1.0" encoding="utf-8"?>
<!-- Generator: Adobe Illustrator 19.2.1, SVG Export Plug-In . SVG Version: 6.00 Build 0)  -->
<svg version="1.1" id="Capa_5" xmlns="http://www.w3.org/2000/svg" xmlns:xlink="http://www.w3.org/1999/xlink" x="0px" y="0px"
	 viewBox="0 0 11.9 11.9" style="enable-background:new 0 0 11.9 11.9;" xml:space="preserve">
<style type="text/css">
	.st0{fill-rule:evenodd;clip-rule:evenodd;fill:#762B82;}
	.st1{fill:#762B82;}
	.st2{fill:#F7E02C;}
	.st3{fill:#5D5D5D;}
	.st4{clip-path:url(#SVGID_2_);}
	.st5{opacity:0.3;}
	.st6{fill-rule:evenodd;clip-rule:evenodd;fill:#F7E02C;}
	.st7{fill:#FFFFFF;}
	.st8{fill:#9A999E;}
	.st9{fill:none;stroke:#F7E02C;stroke-width:4;stroke-miterlimit:10;}
	.st10{fill:#762D83;}
</style>
<path class="st8" d="M9.9,0H2C0.9,0,0,0.9,0,2v7.9c0,1.1,0.9,2,2,2h7.9c1.1,0,2-0.9,2-2V2C11.9,0.9,11,0,9.9,0z M9.2,4.3
	c0,0.1,0,0.1,0,0.2c0,2.2-1.7,4.8-4.8,4.8C3.5,9.2,2.6,9,1.9,8.5c0.1,0,0.3,0,0.4,0c0.8,0,1.5-0.3,2.1-0.7C3.6,7.8,3,7.3,2.8,6.6
	c0.1,0,0.2,0,0.3,0c0.2,0,0.3,0,0.4-0.1C2.8,6.5,2.2,5.8,2.2,5c0,0,0,0,0,0c0.2,0.1,0.5,0.2,0.8,0.2C2.5,4.9,2.2,4.4,2.2,3.8
	c0-0.3,0.1-0.6,0.2-0.8c0.8,1,2.1,1.7,3.4,1.7c0-0.1,0-0.2,0-0.4c0-0.9,0.7-1.7,1.7-1.7c0.5,0,0.9,0.2,1.2,0.5
	c0.4-0.1,0.7-0.2,1.1-0.4C9.7,3.1,9.4,3.5,9,3.7c0.3,0,0.7-0.1,1-0.3C9.8,3.7,9.5,4,9.2,4.3z"/>
</svg>
