<?xml version="1.0" encoding="utf-8"?>
<!-- Generator: Adobe Illustrator 19.2.1, SVG Export Plug-In . SVG Version: 6.00 Build 0)  -->
<svg version="1.1" id="Capa_5" xmlns="http://www.w3.org/2000/svg" xmlns:xlink="http://www.w3.org/1999/xlink" x="0px" y="0px"
	 viewBox="0 0 246.7 136.3" style="enable-background:new 0 0 246.7 136.3;" xml:space="preserve">
<style type="text/css">
	.st0{fill-rule:evenodd;clip-rule:evenodd;fill:#762B82;}
	.st1{fill:#762B82;}
	.st2{fill:#F7E02C;}
	.st3{fill:#5D5D5D;}
	.st4{clip-path:url(#SVGID_2_);}
	.st5{opacity:0.3;}
	.st6{fill-rule:evenodd;clip-rule:evenodd;fill:#F7E02C;}
	.st7{fill:#FFFFFF;}
	.st8{fill:#9A999E;}
	.st9{fill:none;stroke:#F7E02C;stroke-width:4;stroke-miterlimit:10;}
	.st10{fill:#762D83;}
</style>
<g>
	<g>
		<g>
			<path class="st7" d="M17.4,56.9h-4.7v-4.7c0-1.5-1.2-2.6-2.7-2.6c-1.5,0-2.7,1.2-2.7,2.6v4.7H2.6c-1.5,0-2.6,1.2-2.6,2.6
				c0,1.5,1.2,2.6,2.6,2.6h4.7v4.7c0,1.5,1.2,2.6,2.7,2.6c1.5,0,2.7-1.2,2.7-2.6v-4.7l4.7,0c1.5,0,2.6-1.2,2.6-2.7
				C20,58.1,18.8,56.9,17.4,56.9L17.4,56.9z M17.4,56.9"/>
		</g>
	</g>
	<g>
		<g>
			<path class="st2" d="M231.6,64.2h-26.7V37.4c0-8.3-6.8-15.1-15.1-15.1c-8.3,0-15.1,6.8-15.1,15.1v26.8h-26.8
				c-8.3,0-15.1,6.8-15.1,15.1c0,8.3,6.8,15.1,15.1,15.1h26.8v26.8c0,8.3,6.8,15.1,15.1,15.1c8.3,0,15.1-6.8,15.1-15.1V94.4l26.7,0
				c8.3,0,15.1-6.8,15.1-15.1C246.7,71,239.9,64.2,231.6,64.2L231.6,64.2z M231.6,64.2"/>
		</g>
		<g>
			<path class="st2" d="M160.3,15.3h-9.8V5.5c0-3-2.5-5.5-5.5-5.5c-3,0-5.5,2.5-5.5,5.5v9.8h-9.8c-3,0-5.5,2.5-5.5,5.5
				c0,3,2.5,5.5,5.5,5.5h9.8v9.8c0,3,2.5,5.5,5.5,5.5c3,0,5.5-2.5,5.5-5.5v-9.8l9.8,0c3,0,5.5-2.5,5.5-5.5
				C165.8,17.7,163.3,15.3,160.3,15.3L160.3,15.3z M160.3,15.3"/>
		</g>
	</g>
</g>
</svg>
