<?xml version="1.0" encoding="utf-8"?>
<!-- Generator: Adobe Illustrator 19.2.1, SVG Export Plug-In . SVG Version: 6.00 Build 0)  -->
<svg version="1.1" id="Capa_5" xmlns="http://www.w3.org/2000/svg" xmlns:xlink="http://www.w3.org/1999/xlink" x="0px" y="0px"
	 viewBox="0 0 54.5 68.5" style="enable-background:new 0 0 54.5 68.5;" xml:space="preserve">
<style type="text/css">
	.st0{fill-rule:evenodd;clip-rule:evenodd;fill:#762B82;}
	.st1{fill:#762B82;}
	.st2{fill:#F7E02C;}
	.st3{fill:#5D5D5D;}
	.st4{clip-path:url(#SVGID_2_);}
	.st5{opacity:0.3;}
	.st6{fill-rule:evenodd;clip-rule:evenodd;fill:#F7E02C;}
	.st7{fill:#FFFFFF;}
	.st8{fill:#9A999E;}
	.st9{fill:none;stroke:#F7E02C;stroke-width:4;stroke-miterlimit:10;}
	.st10{fill:#762D83;}
</style>
<g>
	<g>
		<path class="st0" d="M27.3,4.9c3.8,0,6.8,3,6.8,6.7h4.9C38.9,5.1,33.7,0,27.3,0c-6.2,0-11.6,5.1-11.6,11.6h4.9
			C20.5,7.8,23.5,4.9,27.3,4.9L27.3,4.9z M54.5,65.8l-3-49.6c-0.3-1.4-1.3-2.5-2.5-2.5H5.7c-1.4,0-2.4,1.1-2.4,2.5L0,65.8
			c0,0.8,0.3,1.3,0.5,1.9c0.5,0.5,1.1,0.8,1.9,0.8h50c1.1,0,2.2-1.1,2.2-2.4C54.5,65.8,54.5,65.8,54.5,65.8L54.5,65.8z M22.7,21.6
			c0,1.6-1.4,3-3.2,3c-1.6,0-3-1.3-3-3v-1.9c0-1.6,1.4-3,3-3c1.9,0,3.2,1.4,3.2,3V21.6z M38.3,21.6c0,1.6-1.6,3-3.2,3
			c-1.6,0-3-1.3-3-3v-1.9c0-1.6,1.4-3,3-3c1.6,0,3.2,1.4,3.2,3V21.6z"/>
	</g>
</g>
</svg>
