<?xml version="1.0" encoding="utf-8"?>
<!-- Generator: Adobe Illustrator 19.2.1, SVG Export Plug-In . SVG Version: 6.00 Build 0)  -->
<svg version="1.1" id="Capa_5" xmlns="http://www.w3.org/2000/svg" xmlns:xlink="http://www.w3.org/1999/xlink" x="0px" y="0px"
	 viewBox="0 0 139.8 127.1" style="enable-background:new 0 0 139.8 127.1;" xml:space="preserve">
<style type="text/css">
	.st0{fill-rule:evenodd;clip-rule:evenodd;fill:#762B82;}
	.st1{fill:#762B82;}
	.st2{fill:#F7E02C;}
	.st3{fill:#5D5D5D;}
	.st4{clip-path:url(#SVGID_2_);}
	.st5{opacity:0.3;}
	.st6{fill-rule:evenodd;clip-rule:evenodd;fill:#F7E02C;}
	.st7{fill:#FFFFFF;}
	.st8{fill:#9A999E;}
	.st9{fill:none;stroke:#F7E02C;stroke-width:4;stroke-miterlimit:10;}
	.st10{fill:#762D83;}
</style>
<g>
	<g>
		<g>
			<path class="st10" d="M51,74.8c1.2,3.6,4.5,6,8.2,6H120c3.9,0,7.3-2.6,8.3-6.3l11.2-40.4c0.7-2.6,0.2-5.4-1.4-7.5
				c-1.6-2.1-4.2-3.4-6.9-3.4H41.4l-8.1-11.3c-4.3-5.9-11.1-9.5-18.4-9.5H6.4C2.9,2.4,0,5.2,0,8.7c0,3.5,2.9,6.4,6.4,6.4h7.1
				c4,0,7.8,2,10.2,5.3l11.4,16.1v50.3c0,8.2,6.6,14.8,14.8,14.8h68.4c3.5,0,6.4-2.9,6.4-6.4c0-3.5-2.9-6.4-6.4-6.4H51.6
				c-1.9,0-3.5-1.6-3.5-3.5V65.8L51,74.8z"/>
			<path class="st10" d="M58.5,117.5c0,5.3-4.3,9.6-9.6,9.6c-5.3,0-9.6-4.3-9.6-9.6c0-5.3,4.3-9.6,9.6-9.6
				C54.1,107.8,58.5,112.1,58.5,117.5"/>
			<path class="st10" d="M120.8,117.5c0,5.3-4.3,9.6-9.6,9.6c-5.3,0-9.6-4.3-9.6-9.6c0-5.3,4.3-9.6,9.6-9.6
				C116.5,107.8,120.8,112.1,120.8,117.5"/>
		</g>
		<path class="st2" d="M102.3,46.3h-9.9v-9.9c0-3.1-2.5-5.6-5.6-5.6c-3.1,0-5.6,2.5-5.6,5.6v9.9h-9.9c-3.1,0-5.6,2.5-5.6,5.6
			c0,3.1,2.5,5.6,5.6,5.6h9.9v9.9c0,3.1,2.5,5.6,5.6,5.6c3.1,0,5.6-2.5,5.6-5.6v-9.9l9.9,0c3.1,0,5.6-2.5,5.6-5.6
			C107.9,48.8,105.4,46.3,102.3,46.3"/>
	</g>
	<path class="st2" d="M120.6,7.1h-4.5V2.5c0-1.4-1.1-2.5-2.6-2.5c-1.4,0-2.6,1.1-2.6,2.5v4.5h-4.5c-1.4,0-2.5,1.1-2.5,2.5
		c0,1.4,1.1,2.5,2.5,2.5h4.5v4.5c0,1.4,1.1,2.5,2.6,2.5c1.4,0,2.6-1.1,2.6-2.5v-4.5l4.5,0c1.4,0,2.5-1.1,2.5-2.5
		C123.2,8.2,122,7.1,120.6,7.1"/>
</g>
</svg>
