<?xml version="1.0" encoding="utf-8"?>
<!-- Generator: Adobe Illustrator 19.2.1, SVG Export Plug-In . SVG Version: 6.00 Build 0)  -->
<svg version="1.1" id="Capa_5" xmlns="http://www.w3.org/2000/svg" xmlns:xlink="http://www.w3.org/1999/xlink" x="0px" y="0px"
	 viewBox="0 0 11.9 11.9" style="enable-background:new 0 0 11.9 11.9;" xml:space="preserve">
<style type="text/css">
	.st0{fill-rule:evenodd;clip-rule:evenodd;fill:#762B82;}
	.st1{fill:#762B82;}
	.st2{fill:#F7E02C;}
	.st3{fill:#5D5D5D;}
	.st4{clip-path:url(#SVGID_2_);}
	.st5{opacity:0.3;}
	.st6{fill-rule:evenodd;clip-rule:evenodd;fill:#F7E02C;}
	.st7{fill:#FFFFFF;}
	.st8{fill:#9A999E;}
	.st9{fill:none;stroke:#F7E02C;stroke-width:4;stroke-miterlimit:10;}
	.st10{fill:#762D83;}
</style>
<path class="st2" d="M9.9,0H2C0.9,0,0,0.9,0,2v7.9c0,1.1,0.9,2,2,2h7.9c1.1,0,2-0.9,2-2V2C11.9,0.9,11,0,9.9,0z M4.3,8.8
	c-1.6,0-2.9-1.3-2.9-2.9c0-1.6,1.3-2.9,2.9-2.9c0.8,0,1.4,0.3,1.9,0.7L5.4,4.6C5.2,4.4,4.9,4.1,4.3,4.1c-1,0-1.8,0.8-1.8,1.8
	s0.8,1.8,1.8,1.8c1.1,0,1.6-0.8,1.6-1.2H4.3v-1H7C7,5.7,7,5.8,7,6C7,7.6,6,8.8,4.3,8.8z M10.4,6.3H9.6v0.8H8.8V6.3H8V5.5h0.8V4.7
	h0.8v0.8h0.8V6.3z"/>
</svg>
