<?xml version="1.0" encoding="utf-8"?>
<!-- Generator: Adobe Illustrator 19.2.1, SVG Export Plug-In . SVG Version: 6.00 Build 0)  -->
<svg version="1.1" id="Capa_5" xmlns="http://www.w3.org/2000/svg" xmlns:xlink="http://www.w3.org/1999/xlink" x="0px" y="0px"
	 viewBox="0 0 314.5 392.4" style="enable-background:new 0 0 314.5 392.4;" xml:space="preserve">
<style type="text/css">
	.st0{fill-rule:evenodd;clip-rule:evenodd;fill:#762B82;}
	.st1{fill:#762B82;}
	.st2{fill:#F7E02C;}
	.st3{fill:#5D5D5D;}
	.st4{clip-path:url(#SVGID_2_);}
	.st5{opacity:0.3;}
	.st6{fill-rule:evenodd;clip-rule:evenodd;fill:#F7E02C;}
	.st7{fill:#FFFFFF;}
	.st8{fill:#9A999E;}
	.st9{fill:none;stroke:#F7E02C;stroke-width:4;stroke-miterlimit:10;}
	.st10{fill:#762D83;}
</style>
<g class="st5">
	<g>
		<g class="st5">
			<path class="st3" d="M67.7,19.7H55.1V7.1c0-3.9-3.2-7.1-7.1-7.1c-3.9,0-7.1,3.2-7.1,7.1v12.6H28.2c-3.9,0-7.1,3.2-7.1,7.1
				c0,3.9,3.2,7.1,7.1,7.1h12.6v12.6c0,3.9,3.2,7.1,7.1,7.1c3.9,0,7.1-3.2,7.1-7.1V34l12.6,0c3.9,0,7.1-3.2,7.1-7.1
				C74.8,22.9,71.6,19.7,67.7,19.7L67.7,19.7z M67.7,19.7"/>
		</g>
		<g class="st5">
			<path class="st3" d="M116.4,38h-8.8v-8.8c0-2.8-2.2-5-5-5c-2.8,0-5,2.2-5,5V38h-8.8c-2.8,0-5,2.2-5,5c0,2.7,2.2,5,5,5h8.8v8.8
				c0,2.8,2.2,5,5,5c2.8,0,5-2.2,5-5V48l8.8,0c2.8,0,5-2.2,5-5C121.4,40.3,119.2,38,116.4,38L116.4,38z M116.4,38"/>
		</g>
		<g class="st5">
			<path class="st3" d="M177,19.7h-12.6V7.1c0-3.9-3.2-7.1-7.1-7.1c-3.9,0-7.1,3.2-7.1,7.1v12.6h-12.6c-3.9,0-7.1,3.2-7.1,7.1
				c0,3.9,3.2,7.1,7.1,7.1h12.6v12.6c0,3.9,3.2,7.1,7.1,7.1c3.9,0,7.1-3.2,7.1-7.1V34l12.6,0c3.9,0,7.1-3.2,7.1-7.1
				C184.1,22.9,180.9,19.7,177,19.7L177,19.7z M177,19.7"/>
		</g>
		<g class="st5">
			<path class="st3" d="M225.7,38h-8.8v-8.8c0-2.8-2.2-5-5-5c-2.8,0-5,2.2-5,5V38H198c-2.8,0-5,2.2-5,5c0,2.7,2.2,5,5,5h8.8v8.8
				c0,2.8,2.2,5,5,5c2.8,0,5-2.2,5-5V48l8.8,0c2.8,0,5-2.2,5-5C230.7,40.3,228.5,38,225.7,38L225.7,38z M225.7,38"/>
		</g>
		<g class="st5">
			<path class="st3" d="M286.3,19.7h-12.6V7.1c0-3.9-3.2-7.1-7.1-7.1c-3.9,0-7.1,3.2-7.1,7.1v12.6h-12.6c-3.9,0-7.1,3.2-7.1,7.1
				c0,3.9,3.2,7.1,7.1,7.1h12.6v12.6c0,3.9,3.2,7.1,7.1,7.1c3.9,0,7.1-3.2,7.1-7.1V34l12.6,0c3.9,0,7.1-3.2,7.1-7.1
				C293.4,22.9,290.2,19.7,286.3,19.7L286.3,19.7z M286.3,19.7"/>
		</g>
	</g>
	<g>
		<g class="st5">
			<path class="st3" d="M46.6,89.7H34V77c0-3.9-3.2-7.1-7.1-7.1c-3.9,0-7.1,3.2-7.1,7.1v12.6H7.1c-3.9,0-7.1,3.2-7.1,7.1
				c0,3.9,3.2,7.1,7.1,7.1h12.6v12.6c0,3.9,3.2,7.1,7.1,7.1c3.9,0,7.1-3.2,7.1-7.1v-12.6l12.6,0c3.9,0,7.1-3.2,7.1-7.1
				C53.8,92.9,50.6,89.7,46.6,89.7L46.6,89.7z M46.6,89.7"/>
		</g>
		<g class="st5">
			<path class="st3" d="M94.5,107.9h-8.8v-8.8c0-2.8-2.2-5-5-5c-2.8,0-5,2.2-5,5v8.8h-8.8c-2.8,0-5,2.2-5,5c0,2.7,2.2,5,5,5h8.8v8.8
				c0,2.8,2.2,5,5,5c2.8,0,5-2.2,5-5v-8.8l8.8,0c2.8,0,5-2.2,5-5C99.4,110.2,97.2,107.9,94.5,107.9L94.5,107.9z M94.5,107.9"/>
		</g>
		<g class="st5">
			<path class="st3" d="M154.1,89.7h-12.6V77c0-3.9-3.2-7.1-7.1-7.1c-3.9,0-7.1,3.2-7.1,7.1v12.6h-12.6c-3.9,0-7.1,3.2-7.1,7.1
				c0,3.9,3.2,7.1,7.1,7.1h12.6v12.6c0,3.9,3.2,7.1,7.1,7.1c3.9,0,7.1-3.2,7.1-7.1v-12.6l12.6,0c3.9,0,7.1-3.2,7.1-7.1
				C161.3,92.9,158.1,89.7,154.1,89.7L154.1,89.7z M154.1,89.7"/>
		</g>
		<g class="st5">
			<path class="st3" d="M202,107.9h-8.8v-8.8c0-2.8-2.2-5-5-5c-2.8,0-5,2.2-5,5v8.8h-8.8c-2.8,0-5,2.2-5,5c0,2.7,2.2,5,5,5h8.8v8.8
				c0,2.8,2.2,5,5,5c2.8,0,5-2.2,5-5v-8.8l8.8,0c2.8,0,5-2.2,5-5C207,110.2,204.7,107.9,202,107.9L202,107.9z M202,107.9"/>
		</g>
		<g class="st5">
			<path class="st3" d="M261.7,89.7H249V77c0-3.9-3.2-7.1-7.1-7.1c-3.9,0-7.1,3.2-7.1,7.1v12.6h-12.6c-3.9,0-7.1,3.2-7.1,7.1
				c0,3.9,3.2,7.1,7.1,7.1h12.6v12.6c0,3.9,3.2,7.1,7.1,7.1c3.9,0,7.1-3.2,7.1-7.1v-12.6l12.6,0c3.9,0,7.1-3.2,7.1-7.1
				C268.8,92.9,265.6,89.7,261.7,89.7L261.7,89.7z M261.7,89.7"/>
		</g>
		<g class="st5">
			<path class="st3" d="M309.5,107.9h-8.8v-8.8c0-2.8-2.2-5-5-5c-2.8,0-5,2.2-5,5v8.8h-8.8c-2.8,0-5,2.2-5,5c0,2.7,2.2,5,5,5h8.8
				v8.8c0,2.8,2.2,5,5,5c2.8,0,5-2.2,5-5v-8.8l8.8,0c2.8,0,5-2.2,5-5C314.5,110.2,312.2,107.9,309.5,107.9L309.5,107.9z
				 M309.5,107.9"/>
		</g>
	</g>
	<g>
		<g class="st5">
			<path class="st3" d="M67.7,150.1H55.1v-12.6c0-3.9-3.2-7.1-7.1-7.1c-3.9,0-7.1,3.2-7.1,7.1v12.6H28.2c-3.9,0-7.1,3.2-7.1,7.1
				c0,3.9,3.2,7.1,7.1,7.1h12.6v12.6c0,3.9,3.2,7.1,7.1,7.1c3.9,0,7.1-3.2,7.1-7.1v-12.6l12.6,0c3.9,0,7.1-3.2,7.1-7.1
				C74.8,153.2,71.6,150.1,67.7,150.1L67.7,150.1z M67.7,150.1"/>
		</g>
		<g class="st5">
			<path class="st3" d="M116.4,168.3h-8.8v-8.8c0-2.8-2.2-5-5-5c-2.8,0-5,2.2-5,5v8.8h-8.8c-2.8,0-5,2.2-5,5c0,2.7,2.2,5,5,5h8.8
				v8.8c0,2.8,2.2,5,5,5c2.8,0,5-2.2,5-5v-8.8l8.8,0c2.8,0,5-2.2,5-5C121.4,170.6,119.2,168.3,116.4,168.3L116.4,168.3z
				 M116.4,168.3"/>
		</g>
		<g class="st5">
			<path class="st3" d="M177,150.1h-12.6v-12.6c0-3.9-3.2-7.1-7.1-7.1c-3.9,0-7.1,3.2-7.1,7.1v12.6h-12.6c-3.9,0-7.1,3.2-7.1,7.1
				c0,3.9,3.2,7.1,7.1,7.1h12.6v12.6c0,3.9,3.2,7.1,7.1,7.1c3.9,0,7.1-3.2,7.1-7.1v-12.6l12.6,0c3.9,0,7.1-3.2,7.1-7.1
				C184.1,153.2,180.9,150.1,177,150.1L177,150.1z M177,150.1"/>
		</g>
		<g class="st5">
			<path class="st3" d="M225.7,168.3h-8.8v-8.8c0-2.8-2.2-5-5-5c-2.8,0-5,2.2-5,5v8.8H198c-2.8,0-5,2.2-5,5c0,2.7,2.2,5,5,5h8.8v8.8
				c0,2.8,2.2,5,5,5c2.8,0,5-2.2,5-5v-8.8l8.8,0c2.8,0,5-2.2,5-5C230.7,170.6,228.5,168.3,225.7,168.3L225.7,168.3z M225.7,168.3"/>
		</g>
		<g class="st5">
			<path class="st3" d="M286.3,150.1h-12.6v-12.6c0-3.9-3.2-7.1-7.1-7.1c-3.9,0-7.1,3.2-7.1,7.1v12.6h-12.6c-3.9,0-7.1,3.2-7.1,7.1
				c0,3.9,3.2,7.1,7.1,7.1h12.6v12.6c0,3.9,3.2,7.1,7.1,7.1c3.9,0,7.1-3.2,7.1-7.1v-12.6l12.6,0c3.9,0,7.1-3.2,7.1-7.1
				C293.4,153.2,290.2,150.1,286.3,150.1L286.3,150.1z M286.3,150.1"/>
		</g>
	</g>
	<g>
		<g class="st5">
			<path class="st3" d="M46.6,220H34v-12.6c0-3.9-3.2-7.1-7.1-7.1c-3.9,0-7.1,3.2-7.1,7.1V220H7.1c-3.9,0-7.1,3.2-7.1,7.1
				c0,3.9,3.2,7.1,7.1,7.1h12.6v12.6c0,3.9,3.2,7.1,7.1,7.1c3.9,0,7.1-3.2,7.1-7.1v-12.6l12.6,0c3.9,0,7.1-3.2,7.1-7.1
				C53.8,223.2,50.6,220,46.6,220L46.6,220z M46.6,220"/>
		</g>
		<g class="st5">
			<path class="st3" d="M94.5,238.3h-8.8v-8.8c0-2.8-2.2-5-5-5c-2.8,0-5,2.2-5,5v8.8h-8.8c-2.8,0-5,2.2-5,5c0,2.7,2.2,5,5,5h8.8v8.8
				c0,2.8,2.2,5,5,5c2.8,0,5-2.2,5-5v-8.8l8.8,0c2.8,0,5-2.2,5-5C99.4,240.5,97.2,238.3,94.5,238.3L94.5,238.3z M94.5,238.3"/>
		</g>
		<g class="st5">
			<path class="st3" d="M154.1,220h-12.6v-12.6c0-3.9-3.2-7.1-7.1-7.1c-3.9,0-7.1,3.2-7.1,7.1V220h-12.6c-3.9,0-7.1,3.2-7.1,7.1
				c0,3.9,3.2,7.1,7.1,7.1h12.6v12.6c0,3.9,3.2,7.1,7.1,7.1c3.9,0,7.1-3.2,7.1-7.1v-12.6l12.6,0c3.9,0,7.1-3.2,7.1-7.1
				C161.3,223.2,158.1,220,154.1,220L154.1,220z M154.1,220"/>
		</g>
		<g class="st5">
			<path class="st3" d="M202,238.3h-8.8v-8.8c0-2.8-2.2-5-5-5c-2.8,0-5,2.2-5,5v8.8h-8.8c-2.8,0-5,2.2-5,5c0,2.7,2.2,5,5,5h8.8v8.8
				c0,2.8,2.2,5,5,5c2.8,0,5-2.2,5-5v-8.8l8.8,0c2.8,0,5-2.2,5-5C207,240.5,204.7,238.3,202,238.3L202,238.3z M202,238.3"/>
		</g>
		<g class="st5">
			<path class="st3" d="M261.7,220H249v-12.6c0-3.9-3.2-7.1-7.1-7.1c-3.9,0-7.1,3.2-7.1,7.1V220h-12.6c-3.9,0-7.1,3.2-7.1,7.1
				c0,3.9,3.2,7.1,7.1,7.1h12.6v12.6c0,3.9,3.2,7.1,7.1,7.1c3.9,0,7.1-3.2,7.1-7.1v-12.6l12.6,0c3.9,0,7.1-3.2,7.1-7.1
				C268.8,223.2,265.6,220,261.7,220L261.7,220z M261.7,220"/>
		</g>
		<g class="st5">
			<path class="st3" d="M309.5,238.3h-8.8v-8.8c0-2.8-2.2-5-5-5c-2.8,0-5,2.2-5,5v8.8h-8.8c-2.8,0-5,2.2-5,5c0,2.7,2.2,5,5,5h8.8
				v8.8c0,2.8,2.2,5,5,5c2.8,0,5-2.2,5-5v-8.8l8.8,0c2.8,0,5-2.2,5-5C314.5,240.5,312.2,238.3,309.5,238.3L309.5,238.3z
				 M309.5,238.3"/>
		</g>
	</g>
	<g>
		<g class="st5">
			<path class="st3" d="M67.7,280.4H55.1v-12.6c0-3.9-3.2-7.1-7.1-7.1c-3.9,0-7.1,3.2-7.1,7.1v12.6H28.2c-3.9,0-7.1,3.2-7.1,7.1
				c0,3.9,3.2,7.1,7.1,7.1h12.6v12.6c0,3.9,3.2,7.1,7.1,7.1c3.9,0,7.1-3.2,7.1-7.1v-12.6l12.6,0c3.9,0,7.1-3.2,7.1-7.1
				C74.8,283.6,71.6,280.4,67.7,280.4L67.7,280.4z M67.7,280.4"/>
		</g>
		<g class="st5">
			<path class="st3" d="M116.4,298.6h-8.8v-8.8c0-2.8-2.2-5-5-5c-2.8,0-5,2.2-5,5v8.8h-8.8c-2.8,0-5,2.2-5,5c0,2.7,2.2,5,5,5h8.8
				v8.8c0,2.8,2.2,5,5,5c2.8,0,5-2.2,5-5v-8.8l8.8,0c2.8,0,5-2.2,5-5C121.4,300.9,119.2,298.6,116.4,298.6L116.4,298.6z
				 M116.4,298.6"/>
		</g>
		<g class="st5">
			<path class="st3" d="M177,280.4h-12.6v-12.6c0-3.9-3.2-7.1-7.1-7.1c-3.9,0-7.1,3.2-7.1,7.1v12.6h-12.6c-3.9,0-7.1,3.2-7.1,7.1
				c0,3.9,3.2,7.1,7.1,7.1h12.6v12.6c0,3.9,3.2,7.1,7.1,7.1c3.9,0,7.1-3.2,7.1-7.1v-12.6l12.6,0c3.9,0,7.1-3.2,7.1-7.1
				C184.1,283.6,180.9,280.4,177,280.4L177,280.4z M177,280.4"/>
		</g>
		<g class="st5">
			<path class="st3" d="M225.7,298.6h-8.8v-8.8c0-2.8-2.2-5-5-5c-2.8,0-5,2.2-5,5v8.8H198c-2.8,0-5,2.2-5,5c0,2.7,2.2,5,5,5h8.8v8.8
				c0,2.8,2.2,5,5,5c2.8,0,5-2.2,5-5v-8.8l8.8,0c2.8,0,5-2.2,5-5C230.7,300.9,228.5,298.6,225.7,298.6L225.7,298.6z M225.7,298.6"/>
		</g>
		<g class="st5">
			<path class="st3" d="M286.3,280.4h-12.6v-12.6c0-3.9-3.2-7.1-7.1-7.1c-3.9,0-7.1,3.2-7.1,7.1v12.6h-12.6c-3.9,0-7.1,3.2-7.1,7.1
				c0,3.9,3.2,7.1,7.1,7.1h12.6v12.6c0,3.9,3.2,7.1,7.1,7.1c3.9,0,7.1-3.2,7.1-7.1v-12.6l12.6,0c3.9,0,7.1-3.2,7.1-7.1
				C293.4,283.6,290.2,280.4,286.3,280.4L286.3,280.4z M286.3,280.4"/>
		</g>
	</g>
	<g>
		<g class="st5">
			<path class="st3" d="M46.6,350.3H34v-12.6c0-3.9-3.2-7.1-7.1-7.1c-3.9,0-7.1,3.2-7.1,7.1v12.6H7.1c-3.9,0-7.1,3.2-7.1,7.1
				c0,3.9,3.2,7.1,7.1,7.1h12.6v12.6c0,3.9,3.2,7.1,7.1,7.1c3.9,0,7.1-3.2,7.1-7.1v-12.6l12.6,0c3.9,0,7.1-3.2,7.1-7.1
				C53.8,353.5,50.6,350.3,46.6,350.3L46.6,350.3z M46.6,350.3"/>
		</g>
		<g class="st5">
			<path class="st3" d="M94.5,368.6h-8.8v-8.8c0-2.8-2.2-5-5-5c-2.8,0-5,2.2-5,5v8.8h-8.8c-2.8,0-5,2.2-5,5c0,2.7,2.2,5,5,5h8.8v8.8
				c0,2.8,2.2,5,5,5c2.8,0,5-2.2,5-5v-8.8l8.8,0c2.8,0,5-2.2,5-5C99.4,370.8,97.2,368.6,94.5,368.6L94.5,368.6z M94.5,368.6"/>
		</g>
		<g class="st5">
			<path class="st3" d="M154.1,350.3h-12.6v-12.6c0-3.9-3.2-7.1-7.1-7.1c-3.9,0-7.1,3.2-7.1,7.1v12.6h-12.6c-3.9,0-7.1,3.2-7.1,7.1
				c0,3.9,3.2,7.1,7.1,7.1h12.6v12.6c0,3.9,3.2,7.1,7.1,7.1c3.9,0,7.1-3.2,7.1-7.1v-12.6l12.6,0c3.9,0,7.1-3.2,7.1-7.1
				C161.3,353.5,158.1,350.3,154.1,350.3L154.1,350.3z M154.1,350.3"/>
		</g>
		<g class="st5">
			<path class="st3" d="M202,368.6h-8.8v-8.8c0-2.8-2.2-5-5-5c-2.8,0-5,2.2-5,5v8.8h-8.8c-2.8,0-5,2.2-5,5c0,2.7,2.2,5,5,5h8.8v8.8
				c0,2.8,2.2,5,5,5c2.8,0,5-2.2,5-5v-8.8l8.8,0c2.8,0,5-2.2,5-5C207,370.8,204.7,368.6,202,368.6L202,368.6z M202,368.6"/>
		</g>
		<g class="st5">
			<path class="st3" d="M261.7,350.3H249v-12.6c0-3.9-3.2-7.1-7.1-7.1c-3.9,0-7.1,3.2-7.1,7.1v12.6h-12.6c-3.9,0-7.1,3.2-7.1,7.1
				c0,3.9,3.2,7.1,7.1,7.1h12.6v12.6c0,3.9,3.2,7.1,7.1,7.1c3.9,0,7.1-3.2,7.1-7.1v-12.6l12.6,0c3.9,0,7.1-3.2,7.1-7.1
				C268.8,353.5,265.6,350.3,261.7,350.3L261.7,350.3z M261.7,350.3"/>
		</g>
		<g class="st5">
			<path class="st3" d="M309.5,368.6h-8.8v-8.8c0-2.8-2.2-5-5-5c-2.8,0-5,2.2-5,5v8.8h-8.8c-2.8,0-5,2.2-5,5c0,2.7,2.2,5,5,5h8.8
				v8.8c0,2.8,2.2,5,5,5c2.8,0,5-2.2,5-5v-8.8l8.8,0c2.8,0,5-2.2,5-5C314.5,370.8,312.2,368.6,309.5,368.6L309.5,368.6z
				 M309.5,368.6"/>
		</g>
	</g>
</g>
</svg>
