<?xml version="1.0" encoding="utf-8"?>
<!-- Generator: Adobe Illustrator 19.2.1, SVG Export Plug-In . SVG Version: 6.00 Build 0)  -->
<svg version="1.1" id="Capa_5" xmlns="http://www.w3.org/2000/svg" xmlns:xlink="http://www.w3.org/1999/xlink" x="0px" y="0px"
	 viewBox="0 0 11.9 11.9" style="enable-background:new 0 0 11.9 11.9;" xml:space="preserve">
<style type="text/css">
	.st0{fill-rule:evenodd;clip-rule:evenodd;fill:#762B82;}
	.st1{fill:#762B82;}
	.st2{fill:#F7E02C;}
	.st3{fill:#5D5D5D;}
	.st4{clip-path:url(#SVGID_2_);}
	.st5{opacity:0.3;}
	.st6{fill-rule:evenodd;clip-rule:evenodd;fill:#F7E02C;}
	.st7{fill:#FFFFFF;}
	.st8{fill:#9A999E;}
	.st9{fill:none;stroke:#F7E02C;stroke-width:4;stroke-miterlimit:10;}
	.st10{fill:#762D83;}
</style>
<path class="st2" d="M9.9,0H2C0.9,0,0,0.9,0,2v7.9c0,1.1,0.9,2,2,2h7.9c1.1,0,2-0.9,2-2V2C11.9,0.9,11,0,9.9,0z M7.7,5.9H6.6v4.2
	H4.8V5.9H4V4.5h0.8v-1c0-0.7,0.3-1.8,1.7-1.8l1.3,0v1.4H6.9c-0.2,0-0.4,0.1-0.4,0.4v0.9h1.3L7.7,5.9z"/>
</svg>
