<svg id="Capa_1" data-name="Capa 1" xmlns="http://www.w3.org/2000/svg" viewBox="0 0 230.2 256.12"><title>iconos-02</title><path d="M201.85,120.69H151.6V70.36a28.45,28.45,0,0,0-56.89,0v50.33H44.36a28.36,28.36,0,0,0,0,56.72H94.71v50.35a28.45,28.45,0,0,0,56.89,0V177.41l50.24,0a28.37,28.37,0,0,0,0-56.74h0Zm0,0" style="fill:#dac539"/><path d="M67.8,28.71H49.47V10.35a10.38,10.38,0,0,0-20.76,0V28.71H10.35a10.35,10.35,0,0,0,0,20.69H28.72V67.77a10.38,10.38,0,0,0,20.76,0V49.4H67.8a10.35,10.35,0,0,0,0-20.7h0Zm0,0" style="fill:#dac539"/></svg>