<svg id="Capa_1" data-name="Capa 1" xmlns="http://www.w3.org/2000/svg" viewBox="0 0 179.2 110.39"><title>iconos-02-03</title><g style="opacity:0.25"><g style="opacity:0.30000000000000004"><path d="M58.3,67.9H42.54V52.11a8.92,8.92,0,0,0-17.85,0V67.9H8.9a8.9,8.9,0,0,0,0,17.79h15.8v15.8a8.92,8.92,0,0,0,17.85,0V85.69H58.3a8.9,8.9,0,0,0,0-17.8h0Zm0,0" style="fill:#5e5d5d"/></g><g style="opacity:0.30000000000000004"><path d="M166.49,35.27H144V12.71a12.75,12.75,0,0,0-25.5,0V35.27H95.91a12.71,12.71,0,0,0,0,25.42h22.57V83.25a12.75,12.75,0,0,0,25.5,0V60.69h22.52a12.72,12.72,0,0,0,0-25.43h0Zm0,0" style="fill:#5e5d5d"/></g></g></svg>