<svg id="Capa_1" data-name="Capa 1" xmlns="http://www.w3.org/2000/svg" viewBox="0 0 245.61 196.9"><title>smile</title><path d="M54.5,21.14a21.81,21.81,0,0,0,43.62,0C98.11,9.25,88.2,0,76.3,0S54.5,9.25,54.5,21.14h0Z" style="fill:#ebc330;fill-rule:evenodd"/><path d="M166.17,0c-11.9,0-21.81,9.25-21.81,21.14a21.81,21.81,0,0,0,43.62,0C188,9.25,178.05,0,166.17,0h0Z" style="fill:#ebc330;fill-rule:evenodd"/><path d="M28.73,82.88C13,82.88.09,84.5,0,86.48V88.3c0,60,55,108.6,122.81,108.6S245.61,148.28,245.61,88.3V86.48c-0.09-2-13-3.6-28.73-3.6H28.73Z" style="fill:#ebc330"/></svg>